<?xml version="1.0" standalone="no"?>
<!DOCTYPE svg PUBLIC "-//W3C//DTD SVG 20010904//EN"
 "http://www.w3.org/TR/2001/REC-SVG-20010904/DTD/svg10.dtd">
<svg version="1.0" xmlns="http://www.w3.org/2000/svg"
 width="1024.000000pt" height="1024.000000pt" viewBox="0 0 1024.000000 1024.000000"
 preserveAspectRatio="xMidYMid meet">

<g transform="translate(0.000000,1024.000000) scale(0.100000,-0.100000)"
fill="#ffffff" stroke="none">
<path d="M4885 9479 c-885 -43 -1711 -358 -2430 -928 -155 -123 -493 -461
-621 -621 -440 -551 -717 -1171 -829 -1851 -97 -594 -58 -1223 113 -1805 38
-128 38 -128 72 -136 46 -11 5752 1 5764 12 15 15 -3 28 -72 54 -126 47 -181
56 -397 66 -224 10 -290 20 -480 75 -67 20 -218 50 -342 70 -263 41 -312 53
-599 145 -348 113 -479 143 -849 195 -799 111 -1252 210 -1620 351 -166 64
-255 112 -359 194 -140 111 -223 145 -653 264 -94 26 -235 78 -263 96 -13 8
-13 11 -1 19 21 14 99 20 536 41 507 25 609 36 639 69 25 28 -7 78 -81 127
-109 74 -234 101 -647 143 -109 11 -200 22 -201 23 -2 2 175 3 393 4 1723 3
1702 3 1702 49 0 14 -68 79 -91 87 -69 25 148 27 3059 33 l2443 4 8 -22 c11
-28 46 -239 63 -377 8 -67 13 -219 13 -420 -1 -329 -11 -461 -56 -700 -18 -93
-88 -391 -94 -398 -1 -1 -18 4 -38 13 -60 25 -115 33 -307 45 -345 20 -426 31
-655 85 -145 34 -510 54 -534 30 -41 -41 70 -74 246 -75 95 0 232 -25 383 -68
130 -38 258 -57 515 -77 110 -9 233 -20 273 -25 40 -6 77 -10 82 -10 4 0 2
-24 -6 -52 -7 -29 -10 -56 -6 -60 4 -4 34 -13 67 -19 51 -9 61 -9 71 5 15 22
98 314 128 456 32 149 62 358 77 538 15 183 6 632 -16 802 -70 543 -262 1094
-554 1586 -68 114 -80 127 -123 127 -35 0 -78 -41 -78 -74 0 -11 33 -75 74
-143 141 -234 278 -531 357 -773 18 -56 30 -105 27 -108 -3 -4 -32 -14 -65
-23 -70 -21 -300 -21 -574 -2 -228 17 -492 8 -609 -19 -47 -11 -173 -45 -280
-77 l-195 -58 -305 -4 -305 -4 -131 66 c-304 151 -475 169 -804 84 -152 -39
-175 -42 -290 -41 -117 0 -133 3 -265 42 -129 39 -151 43 -287 48 -184 7 -278
-8 -513 -84 -93 -30 -215 -65 -270 -78 -113 -27 -380 -55 -560 -58 l-120 -2
-66 38 c-111 63 -170 79 -284 79 -74 0 -114 5 -153 19 -32 12 -79 19 -120 19
-62 0 -72 3 -127 40 -82 55 -140 71 -253 69 l-92 -2 -43 40 c-56 52 -103 67
-177 59 -51 -6 -61 -4 -86 17 -107 90 -296 121 -464 77 -84 -22 -190 -19 -190
6 0 16 116 286 143 332 l19 32 1333 0 1333 0 30 25 c16 13 40 48 53 77 20 45
23 69 23 153 -1 132 -24 193 -106 281 -105 112 -230 153 -365 121 -52 -12 -63
-12 -63 -1 0 36 -46 128 -86 173 -92 103 -250 138 -384 86 -11 -4 -21 6 -34
35 -24 56 -108 144 -169 179 -85 48 -157 64 -263 59 -80 -4 -103 -10 -169 -41
-138 -66 -224 -179 -249 -329 l-12 -73 -71 -6 c-76 -7 -158 -39 -218 -85 -42
-32 -111 -132 -126 -185 -12 -38 -13 -39 -58 -39 -44 0 -89 -8 -140 -25 l-24
-7 21 36 c104 176 420 528 665 742 826 720 1920 1075 3011 979 452 -40 808
-127 1275 -314 95 -39 105 -41 126 -27 15 10 27 33 35 66 7 28 11 53 9 55 -9
8 -222 95 -324 133 -281 103 -638 186 -969 227 -106 13 -515 38 -551 33 -5 0
-82 -5 -170 -9z m-1929 -1266 c119 -40 198 -131 220 -256 13 -74 59 -88 109
-33 70 77 207 72 289 -10 48 -49 60 -82 66 -189 l5 -100 34 -3 c25 -3 40 3 60
21 47 44 91 61 166 61 59 1 77 -3 116 -26 57 -34 105 -87 132 -147 26 -57 27
-168 4 -223 l-16 -38 -1275 0 c-702 0 -1276 4 -1276 8 0 12 52 83 76 104 35
30 114 67 172 79 44 9 71 9 125 -2 48 -9 74 -9 86 -2 9 6 25 45 37 91 25 98
60 154 121 192 59 38 119 46 213 31 73 -13 75 -13 93 10 15 19 17 33 12 80 -9
75 8 154 48 220 72 120 243 179 383 132z m-1636 -2218 c280 -17 726 -67 759
-85 7 -4 -83 -10 -200 -14 -118 -4 -290 -11 -384 -16 -93 -6 -212 -10 -262
-10 l-93 0 0 44 c0 25 4 56 10 71 8 22 14 25 42 21 18 -3 76 -8 128 -11z m21
-518 c53 -14 121 -34 151 -45 30 -11 104 -29 164 -40 241 -45 344 -87 504
-208 146 -111 178 -128 357 -185 87 -29 212 -73 278 -99 220 -88 389 -132 600
-160 39 -5 156 -21 261 -34 267 -36 431 -68 638 -125 167 -47 219 -57 467 -95
84 -13 379 -102 464 -140 l30 -13 -40 -10 c-72 -19 -279 -53 -315 -53 -19 0
-62 12 -95 26 -76 33 -105 39 -245 59 -63 8 -178 31 -255 51 -76 19 -193 44
-260 55 -66 11 -174 34 -240 51 -66 16 -194 38 -284 49 -138 16 -186 26 -315
68 -245 81 -531 158 -709 192 -102 19 -343 101 -407 139 -116 67 -143 77 -290
109 -80 18 -167 40 -195 50 -68 25 -215 56 -360 76 -66 9 -123 22 -128 28 -4
7 -6 35 -4 62 l3 50 60 3 c71 4 83 12 60 46 -14 23 -24 26 -71 26 l-55 0 0 51
0 52 68 -6 c37 -3 110 -17 163 -30z"/>
<path d="M1366 5325 c-20 -20 -20 -20 0 -39 10 -11 32 -16 67 -15 79 2 102 11
102 39 0 24 -3 25 -76 28 -60 2 -80 -1 -93 -13z"/>
<path d="M1717 5223 c-4 -3 -7 -15 -7 -25 0 -29 44 -20 48 10 3 16 -2 22 -16
22 -10 0 -22 -3 -25 -7z"/>
<path d="M7572 9368 c-10 -12 -142 -519 -142 -544 0 -24 32 -44 70 -44 21 0
41 4 44 8 9 14 136 512 136 532 0 46 -81 81 -108 48z"/>
<path d="M6987 9252 c-10 -10 -17 -28 -17 -40 0 -30 68 -352 80 -379 12 -28
53 -39 86 -24 20 9 24 18 24 51 0 64 -68 371 -86 392 -22 23 -66 23 -87 0z"/>
<path d="M7955 8848 c-70 -79 -134 -153 -142 -165 -31 -47 13 -104 69 -90 27
7 278 283 292 321 14 38 -15 76 -58 76 -31 0 -45 -13 -161 -142z"/>
<path d="M6402 8954 c-16 -11 -22 -25 -22 -51 0 -34 12 -49 147 -185 119 -120
152 -148 175 -148 36 0 63 39 53 77 -7 32 -292 323 -316 323 -8 0 -25 -7 -37
-16z"/>
<path d="M4450 8905 c-55 -17 -119 -70 -145 -119 -18 -33 -23 -36 -64 -36
-107 0 -202 -67 -237 -167 -18 -51 -20 -53 -78 -73 -33 -11 -68 -20 -78 -20
-44 0 -127 -60 -154 -112 -21 -40 -18 -91 7 -114 20 -18 49 -19 856 -19 l835
0 19 24 c24 30 25 100 2 167 -11 33 -34 67 -73 106 -47 46 -68 60 -124 77 -38
12 -88 21 -112 21 -40 0 -45 3 -63 38 -37 73 -104 112 -189 112 -42 0 -52 4
-83 36 -77 80 -212 114 -319 79z m188 -125 c45 -20 72 -63 72 -115 0 -17 8
-29 25 -37 21 -9 30 -7 63 15 45 32 80 34 114 8 26 -21 48 -79 48 -129 0 -43
33 -51 88 -23 48 24 69 26 125 9 49 -15 123 -82 132 -121 4 -15 5 -30 3 -32
-6 -6 -1439 -7 -1445 -1 -8 8 39 28 127 57 91 29 98 36 120 116 6 24 21 55 34
70 23 27 29 28 116 29 78 0 95 3 106 19 8 10 14 26 14 34 0 30 39 80 77 100
49 26 125 26 181 1z"/>
<path d="M7240 8713 c-213 -18 -418 -154 -533 -353 -75 -131 -96 -348 -49
-500 65 -208 224 -367 437 -437 101 -32 262 -36 365 -9 463 125 647 675 351
1043 -137 169 -368 273 -571 256z m272 -180 c100 -50 165 -104 220 -185 58
-86 80 -156 86 -267 8 -168 -36 -289 -148 -402 -207 -209 -548 -212 -755 -5
-200 201 -206 539 -13 738 117 120 248 170 435 165 84 -3 97 -6 175 -44z"/>
<path d="M8280 8464 c-118 -47 -225 -91 -237 -100 -16 -10 -23 -24 -23 -47 0
-41 15 -57 52 -57 30 0 456 160 495 186 48 31 17 105 -43 103 -16 -1 -126 -39
-244 -85z"/>
<path d="M6003 8475 c-27 -19 -31 -66 -8 -89 17 -16 82 -38 342 -113 177 -51
206 -51 219 2 13 54 -7 66 -247 138 -274 82 -278 82 -306 62z"/>
<path d="M8066 7954 c-36 -35 -13 -89 44 -104 53 -14 391 -80 411 -80 46 0 69
92 27 110 -31 13 -406 90 -440 90 -15 0 -34 -7 -42 -16z"/>
<path d="M6270 7876 c-164 -47 -186 -55 -198 -78 -9 -21 -10 -32 -1 -52 21
-45 29 -44 239 13 184 50 215 61 227 77 31 42 1 95 -53 93 -16 0 -112 -24
-214 -53z"/>
<path d="M5250 7744 c-53 -19 -111 -71 -134 -122 l-17 -37 -87 0 c-70 0 -95
-5 -129 -22 -50 -27 -98 -84 -116 -137 -12 -35 -19 -42 -54 -52 -65 -19 -102
-42 -132 -84 -30 -41 -46 -98 -37 -128 15 -47 17 -47 729 -42 l669 5 24 28
c20 24 24 39 24 94 0 146 -102 248 -276 276 l-76 12 -24 51 c-29 62 -97 128
-160 154 -55 24 -141 25 -204 4z m157 -115 c15 -6 39 -20 52 -32 31 -29 71
-114 71 -154 0 -32 21 -63 44 -63 7 0 34 7 59 16 40 13 55 14 98 4 82 -20 146
-91 137 -152 l-3 -23 -587 -3 c-324 -1 -588 2 -588 6 0 5 39 22 88 38 l87 29
7 53 c7 65 43 107 102 123 33 9 50 7 103 -10 35 -12 71 -21 80 -21 32 0 53 31
53 77 0 24 5 53 11 64 26 50 118 74 186 48z"/>
<path d="M7896 7578 c-19 -27 -20 -47 -3 -69 7 -8 92 -88 189 -177 185 -169
207 -182 242 -143 38 42 21 65 -171 243 -151 139 -187 168 -212 168 -20 0 -35
-8 -45 -22z"/>
<path d="M6644 7557 c-12 -7 -97 -85 -189 -173 -147 -142 -166 -165 -160 -185
8 -30 41 -59 66 -59 10 0 96 74 194 167 157 149 175 169 175 199 0 23 -7 38
-22 48 -27 19 -36 19 -64 3z"/>
<path d="M7514 7315 c-19 -19 -23 -31 -18 -52 11 -45 84 -324 100 -381 11 -40
21 -55 39 -62 33 -13 74 6 81 37 5 19 -56 276 -102 435 -15 51 -61 61 -100 23z"/>
<path d="M7021 7313 c-17 -33 -133 -484 -127 -498 3 -8 17 -21 31 -31 21 -14
31 -15 51 -6 31 15 33 19 101 287 57 220 58 223 39 244 -24 27 -81 29 -95 4z"/>
<path d="M6022 6092 c-79 -24 -87 -25 -140 -12 -31 8 -106 15 -165 18 -116 4
-140 -4 -135 -42 3 -19 12 -22 103 -27 55 -4 123 -14 150 -23 69 -22 111 -20
202 9 96 30 147 31 221 4 117 -44 142 -45 223 -16 82 30 105 32 176 16 30 -7
66 -8 98 -2 44 7 50 11 50 33 0 24 -5 26 -80 37 -111 16 -193 16 -251 -2 -67
-20 -95 -19 -193 10 -104 31 -152 30 -259 -3z"/>
<path d="M4585 6088 c-54 -18 -68 -19 -141 -9 -110 15 -216 14 -238 -2 -10 -7
-17 -22 -14 -33 3 -17 15 -20 98 -25 52 -4 116 -12 143 -19 52 -14 80 -10 180
22 l67 22 68 -22 c82 -26 120 -27 193 -6 52 16 101 15 210 -2 29 -5 38 -2 43
12 10 27 -20 51 -89 68 -80 20 -118 20 -181 1 -27 -8 -62 -15 -79 -15 -16 0
-52 7 -79 15 -64 19 -107 18 -181 -7z"/>
<path d="M8150 6083 c-74 -14 -279 -12 -357 3 -37 7 -49 -9 -39 -52 26 -100
510 -88 524 14 4 28 -14 53 -37 51 -9 -1 -50 -8 -91 -16z"/>
<path d="M8424 5986 c-36 -16 -46 -28 -39 -48 4 -11 26 -15 83 -15 42 0 138
-4 213 -8 133 -7 137 -7 148 14 10 19 9 22 -14 31 -15 6 -56 10 -93 10 -37 1
-103 7 -147 15 -98 18 -112 18 -151 1z"/>
<path d="M3183 5963 c-8 -2 -13 -22 -13 -45 l0 -40 -187 4 c-153 3 -194 7
-222 21 -19 9 -40 17 -46 17 -23 0 -25 -30 -6 -68 22 -43 46 -67 81 -78 14 -4
157 -7 319 -5 330 2 339 4 386 71 35 50 28 75 -18 66 -52 -11 -169 -23 -207
-22 -32 2 -35 4 -32 29 5 43 -19 65 -55 50z"/>
<path d="M3830 5894 c-57 -19 -87 -24 -126 -19 -43 4 -53 2 -58 -12 -5 -11 1
-23 16 -35 40 -31 79 -32 167 -4 97 31 140 32 283 9 85 -13 112 -14 133 -5 17
8 25 19 23 30 -2 13 -18 19 -63 24 -33 4 -89 14 -125 22 -92 22 -163 19 -250
-10z"/>
<path d="M7252 5908 c-17 -17 -15 -36 6 -42 126 -37 340 -33 380 8 15 15 15
17 0 33 -15 15 -27 15 -115 4 -72 -9 -115 -10 -163 -2 -83 14 -93 14 -108 -1z"/>
<path d="M5263 5869 c-23 -7 -33 -16 -33 -29 0 -28 30 -31 140 -17 84 11 95
14 95 32 0 18 -7 20 -85 22 -47 1 -100 -3 -117 -8z"/>
<path d="M6510 5830 c-147 -51 -194 -57 -300 -35 -104 21 -262 17 -287 -8 -28
-28 -5 -37 92 -37 52 0 127 -7 167 -16 40 -8 109 -16 153 -16 68 -1 92 4 160
31 133 52 179 56 362 32 87 -12 188 -21 226 -21 60 0 67 2 67 19 0 11 -4 22
-8 25 -20 12 -389 66 -450 66 -52 0 -92 -9 -182 -40z"/>
<path d="M4508 5725 c-38 -21 -46 -60 -19 -88 11 -13 26 -38 32 -57 7 -19 19
-44 29 -55 9 -11 31 -56 49 -100 38 -92 87 -186 142 -267 22 -32 39 -60 39
-63 0 -8 -148 -6 -316 5 -89 5 -207 20 -283 36 -72 15 -134 24 -137 21 -17
-17 11 -47 64 -66 154 -56 403 -88 612 -78 95 5 119 3 142 -11 53 -31 42 -39
-65 -45 -70 -5 -105 -11 -116 -22 -29 -29 3 -37 195 -46 172 -7 279 -22 343
-47 17 -6 -29 -11 -155 -15 -209 -8 -277 -21 -282 -54 -2 -14 2 -24 10 -25 7
0 135 -2 283 -3 149 -1 311 -7 360 -13 208 -29 351 -56 365 -70 13 -13 -2 -14
-130 -8 -412 18 -504 18 -524 3 -11 -8 -17 -21 -14 -29 10 -24 451 -59 883
-68 373 -9 532 -22 865 -71 185 -27 355 -36 375 -19 8 7 15 16 15 20 0 22
-158 55 -415 86 -77 9 -149 20 -160 25 -28 11 352 10 515 -2 317 -22 319 -22
334 -10 41 34 -19 55 -274 96 -91 15 -187 35 -213 45 -27 10 -73 22 -103 26
-30 3 -56 10 -59 14 -2 4 30 15 73 23 74 16 82 16 187 -4 90 -18 166 -23 425
-28 l315 -7 137 -37 c243 -65 776 -120 839 -87 47 26 5 60 -74 60 -23 0 -82 7
-132 15 -49 8 -162 21 -250 30 -157 15 -206 24 -450 81 -114 27 -132 28 -385
29 -153 1 -307 7 -363 15 l-99 13 69 60 c145 129 286 290 395 452 45 68 65 89
79 87 15 -3 25 10 45 54 39 89 41 108 9 122 -31 14 -78 16 -103 3 -9 -5 -75
-28 -146 -50 -180 -58 -196 -66 -196 -92 0 -12 8 -28 17 -35 10 -7 15 -15 12
-19 -27 -26 -455 -44 -822 -33 -441 12 -773 47 -1585 164 l-192 27 -24 41
c-13 23 -33 49 -44 59 -28 25 -90 31 -124 12z m572 -259 c80 -8 181 -18 225
-22 44 -4 76 -8 70 -9 -5 -2 -83 -9 -172 -16 -157 -12 -165 -11 -242 10 -44
11 -99 31 -123 42 l-43 20 70 -5 c39 -3 135 -12 215 -20z m-280 -66 c73 -45
182 -90 292 -120 241 -65 858 -119 1198 -105 413 17 861 77 1048 140 23 7 42
11 42 8 0 -18 -119 -149 -157 -173 -90 -57 -269 -89 -618 -111 -293 -18 -564
-3 -950 52 -366 52 -778 153 -867 212 -40 28 -78 82 -78 113 0 33 15 30 90
-16z m1015 -35 c298 -29 484 -39 699 -39 235 -1 237 -8 6 -25 -258 -19 -539
-24 -691 -12 -281 21 -515 60 -367 61 66 0 88 7 88 27 0 11 11 13 58 8 31 -3
125 -12 207 -20z m125 -600 c52 -9 199 -31 325 -50 253 -38 259 -40 249 -56
-22 -35 -728 68 -742 109 -5 16 49 15 168 -3z"/>
<path d="M8245 5689 c-77 -11 -149 -43 -153 -68 -5 -31 20 -36 89 -16 78 21
142 21 259 -3 188 -39 252 -37 258 6 2 13 -2 23 -10 23 -7 1 -34 3 -61 5 -26
2 -93 14 -150 28 -125 29 -168 34 -232 25z"/>
<path d="M2237 5613 c-21 -20 -4 -43 47 -62 148 -55 266 -66 386 -37 96 23
138 20 263 -20 152 -50 205 -53 355 -20 67 14 133 26 146 26 33 0 53 25 36 45
-16 19 -93 19 -180 0 -116 -26 -194 -20 -335 25 -138 44 -189 48 -295 25 -94
-21 -212 -19 -295 5 -72 20 -117 25 -128 13z"/>
<path d="M3953 5584 c-10 -26 11 -35 129 -60 109 -22 229 -30 275 -18 22 6 41
40 28 52 -3 3 -37 5 -74 4 -40 -2 -113 5 -175 17 -130 25 -174 27 -183 5z"/>
<path d="M2803 5283 c-7 -2 -13 -15 -13 -28 0 -26 14 -40 50 -48 14 -3 176
-20 360 -37 184 -16 368 -35 408 -40 107 -14 152 -13 152 5 0 8 -8 19 -18 24
-25 13 -167 37 -397 66 -110 14 -264 34 -342 45 -145 20 -178 22 -200 13z"/>
<path d="M8360 5265 c-116 -31 -204 -32 -342 -5 -123 24 -138 24 -164 6 -19
-15 -19 -15 1 -35 42 -43 307 -88 422 -71 32 4 87 16 123 25 90 25 166 22 301
-9 140 -31 228 -34 252 -8 10 10 17 24 17 30 0 24 -45 42 -105 42 -33 0 -107
11 -165 25 -133 31 -218 31 -340 0z"/>
<path d="M6040 4455 c-34 -41 -2 -46 606 -95 73 -6 169 -17 215 -26 46 -8 180
-19 297 -24 251 -11 235 -9 477 -70 285 -73 624 -114 646 -79 5 9 3 19 -4 26
-26 24 -252 75 -417 93 -52 5 -149 23 -215 39 -197 48 -272 59 -445 66 -167 7
-351 23 -560 49 -134 18 -399 36 -510 36 -56 0 -81 -4 -90 -15z"/>
<path d="M3923 3943 c-33 -43 -63 -84 -67 -92 -14 -22 13 -31 90 -31 70 0 73
1 104 37 l33 37 29 -37 c29 -36 32 -37 98 -37 71 0 100 6 100 21 0 4 -28 47
-62 94 l-62 85 -102 0 -102 0 -59 -77z"/>
<path d="M3140 3776 c-119 -35 -211 -113 -248 -210 -51 -133 -51 -387 -1 -520
49 -132 171 -215 330 -224 148 -8 271 44 341 143 31 43 58 159 42 174 -5 5
-49 11 -98 13 -71 2 -90 0 -96 -12 -4 -8 -15 -33 -26 -55 -49 -104 -230 -100
-284 6 -49 96 -48 332 2 422 33 59 67 80 135 84 82 6 121 -16 153 -85 l24 -53
91 7 c49 3 94 9 99 12 14 8 -2 89 -28 140 -30 59 -82 107 -153 139 -66 30
-212 40 -283 19z"/>
<path d="M1575 3771 c-34 -7 -10 53 -224 -566 -61 -177 -111 -331 -111 -343 0
-14 6 -22 18 -23 56 -4 177 2 183 9 3 4 17 39 29 77 13 39 27 76 33 83 7 8 51
12 157 12 l148 0 15 -38 c8 -20 20 -55 26 -77 6 -22 14 -45 19 -52 11 -17 191
-21 202 -4 9 16 9 19 -70 241 -34 96 -100 285 -146 420 -47 135 -92 251 -101
258 -18 13 -124 15 -178 3z m135 -408 c27 -86 50 -160 50 -165 0 -4 -47 -8
-105 -8 -58 0 -105 3 -105 7 0 10 104 323 107 323 1 0 25 -71 53 -157z"/>
<path d="M2280 3770 l-75 -5 0 -460 0 -460 280 0 280 0 3 78 c2 50 -1 84 -9
93 -9 11 -47 14 -180 14 -154 0 -169 2 -169 18 -1 9 0 161 0 337 0 176 -2 334
-6 352 -7 37 -19 40 -124 33z"/>
<path d="M3996 3772 c-15 -6 -56 -115 -173 -448 -84 -241 -152 -448 -150 -459
2 -18 9 -20 97 -20 l95 0 30 85 30 85 160 0 159 0 26 -75 c14 -41 29 -81 33
-88 13 -19 196 -17 203 3 6 15 -299 892 -317 910 -12 12 -167 18 -193 7z m146
-415 c26 -83 48 -155 48 -159 0 -5 -47 -8 -105 -8 -58 0 -105 3 -105 7 0 17
105 322 109 317 3 -2 26 -73 53 -157z"/>
<path d="M4637 3768 c-16 -12 -17 -49 -15 -468 l3 -455 100 0 100 0 -4 273
c-2 152 0 272 5 272 5 0 83 -118 174 -262 91 -143 171 -267 179 -275 10 -10
38 -13 110 -11 l96 3 3 454 c1 327 -1 458 -9 467 -8 10 -35 14 -85 14 -117 0
-112 15 -106 -303 3 -152 1 -267 -4 -267 -5 0 -38 46 -73 103 -36 56 -111 176
-169 267 -57 91 -113 173 -124 183 -25 21 -154 24 -181 5z"/>
<path d="M5522 3768 c-14 -14 -16 -126 -2 -162 9 -26 10 -26 129 -26 l119 0 5
-57 c2 -32 5 -195 6 -363 1 -167 5 -308 10 -313 4 -4 50 -6 102 -5 l94 3 3
368 2 367 118 0 c78 0 122 4 130 12 19 19 16 153 -4 172 -13 14 -60 16 -358
16 -253 0 -345 -3 -354 -12z"/>
<path d="M6558 3763 c-21 -24 -320 -893 -314 -910 4 -11 28 -13 103 -11 l98 3
30 85 30 85 157 3 157 3 28 -88 28 -88 103 -3 102 -3 0 25 c0 14 -63 206 -141
428 -157 448 -165 469 -182 480 -7 4 -51 8 -98 8 -69 0 -89 -3 -101 -17z m206
-550 c7 -23 7 -23 -103 -23 l-110 0 57 167 56 168 47 -145 c25 -80 49 -155 53
-167z"/>
<path d="M7237 3765 c-15 -15 -17 -48 -16 -313 1 -163 4 -367 8 -452 l6 -155
95 0 95 0 5 165 5 165 81 3 80 3 74 -158 c41 -87 78 -164 83 -170 6 -9 41 -13
108 -13 90 0 99 2 99 19 0 10 -37 94 -82 187 -75 154 -80 169 -64 178 113 67
146 125 146 256 0 141 -54 222 -180 272 -49 19 -79 22 -291 26 -210 4 -237 2
-252 -13z m485 -212 c57 -57 34 -153 -43 -180 -19 -7 -82 -12 -141 -12 l-108
-1 0 116 0 116 130 -4 130 -4 32 -31z"/>
<path d="M8433 3763 c-13 -11 -43 -82 -76 -178 -196 -565 -247 -720 -243 -732
4 -11 28 -13 103 -11 l98 3 30 85 30 85 158 3 c86 1 157 1 157 0 0 -2 13 -41
29 -88 l27 -85 97 -3 c82 -2 98 0 103 13 7 17 -285 862 -310 900 -13 20 -24
22 -99 24 -68 2 -87 -1 -104 -16z m154 -410 l52 -158 -55 -3 c-30 -2 -78 -2
-108 0 l-54 3 51 158 c28 86 54 157 57 157 3 0 29 -71 57 -157z"/>
<path d="M1352 2590 c-75 -11 -155 -54 -201 -107 -69 -78 -101 -196 -101 -373
0 -245 64 -377 213 -445 78 -36 190 -44 271 -21 l59 17 56 -55 c31 -31 63 -56
72 -56 22 0 89 72 89 97 0 11 -19 41 -41 67 l-42 47 32 67 c60 131 65 402 10
547 -30 79 -122 173 -194 197 -63 21 -154 29 -223 18z m141 -191 c36 -19 68
-52 84 -89 18 -40 30 -260 18 -336 l-7 -47 -47 47 c-26 25 -53 46 -61 46 -20
0 -90 -70 -90 -90 0 -9 18 -34 40 -55 22 -21 40 -43 40 -48 0 -5 -29 -7 -65
-5 -121 8 -149 68 -143 311 3 172 16 214 77 254 38 26 116 31 154 12z"/>
<path d="M4164 2587 c-110 -29 -197 -104 -234 -206 -49 -129 -49 -404 -1 -532
51 -134 189 -219 359 -219 122 0 238 56 296 144 49 74 66 142 73 291 12 276
-51 429 -206 499 -72 32 -208 43 -287 23z m190 -191 c71 -30 102 -135 94 -324
-8 -193 -49 -252 -174 -252 -82 0 -122 26 -146 95 -23 67 -25 308 -3 381 14
47 52 95 85 107 29 11 111 7 144 -7z"/>
<path d="M7064 2590 c-65 -14 -136 -54 -181 -103 -85 -92 -108 -172 -106 -377
1 -154 10 -213 45 -287 102 -216 450 -260 616 -78 74 81 94 147 100 333 5 170
-5 246 -44 329 -34 72 -115 143 -188 166 -68 22 -183 30 -242 17z m176 -198
c24 -12 43 -33 60 -67 24 -47 25 -59 25 -215 0 -187 -11 -225 -74 -267 -45
-30 -141 -32 -188 -3 -61 37 -68 64 -68 265 0 203 9 239 74 282 42 28 120 31
171 5z"/>
<path d="M1961 2561 c-13 -23 -14 -372 -2 -566 10 -159 30 -214 103 -280 68
-61 128 -80 258 -80 127 0 188 18 254 76 25 22 57 65 73 97 l28 57 0 355 0
355 -95 0 -95 0 -7 -315 c-8 -351 -12 -380 -67 -417 -44 -30 -132 -32 -177 -4
-58 35 -64 69 -72 421 l-7 315 -92 3 c-83 2 -93 1 -102 -17z"/>
<path d="M2867 2574 c-4 -4 -7 -211 -7 -461 l0 -453 23 -9 c12 -4 56 -5 97 -2
l75 6 0 460 0 460 -90 3 c-50 1 -94 0 -98 -4z"/>
<path d="M3256 2564 c-3 -9 -6 -216 -6 -460 l0 -444 26 -10 c14 -6 130 -10
259 -10 129 0 245 4 259 10 25 9 26 13 26 89 0 53 -4 82 -13 90 -8 6 -77 12
-178 13 l-164 3 -5 365 c-3 201 -7 366 -8 368 -1 1 -44 2 -96 2 -76 0 -95 -3
-100 -16z"/>
<path d="M4827 2574 c-4 -4 -7 -211 -7 -461 l0 -453 26 -10 c36 -14 127 -12
147 3 15 11 17 43 19 287 l3 274 95 -223 c62 -148 102 -228 116 -238 21 -13
110 -13 132 1 5 3 49 101 97 218 48 117 92 217 97 223 4 5 8 -114 8 -263 l0
-272 28 -11 c30 -12 139 -6 153 8 5 5 8 206 7 464 l-3 454 -117 3 -117 3 -19
-38 c-10 -21 -59 -139 -108 -263 -48 -124 -90 -227 -91 -229 -6 -9 -16 13
-113 250 -55 134 -104 251 -109 259 -6 12 -33 16 -123 18 -63 1 -117 -1 -121
-4z"/>
<path d="M5945 2568 c-3 -7 -4 -215 -3 -463 l3 -450 229 -3 c259 -3 304 4 378
61 56 43 89 103 95 177 8 85 -11 144 -65 199 -35 37 -41 49 -33 61 60 82 78
151 61 233 -19 95 -74 155 -166 183 -64 19 -492 20 -499 2z m415 -176 c63 -31
67 -125 7 -162 -27 -17 -47 -20 -127 -18 l-95 3 -3 84 c-2 46 -1 90 2 98 8 21
172 18 216 -5z m32 -375 c47 -20 65 -64 49 -117 -19 -63 -38 -70 -178 -70
l-123 0 0 98 c0 54 3 102 8 107 11 12 206 -2 244 -18z"/>
<path d="M7695 2568 c-3 -7 -4 -215 -3 -463 l3 -450 260 -5 c143 -3 268 -2
278 2 14 7 17 22 17 87 0 53 -4 82 -13 90 -8 6 -76 12 -173 13 l-159 3 -5 355
c-3 195 -9 361 -13 368 -6 8 -37 12 -98 12 -62 0 -91 -4 -94 -12z"/>
<path d="M8660 2558 c-6 -13 -77 -216 -159 -453 -106 -307 -146 -434 -139
-442 7 -9 41 -13 103 -13 l93 0 30 88 29 87 159 0 159 0 18 -53 c9 -29 24 -69
32 -88 l14 -34 96 0 c70 0 97 4 101 13 4 11 -258 780 -301 884 l-14 33 -106 0
c-100 0 -106 -1 -115 -22z m169 -387 c28 -88 51 -163 51 -168 0 -4 -47 -7
-105 -5 -58 2 -105 7 -105 12 0 13 100 320 105 320 2 0 26 -72 54 -159z"/>
<path d="M3046 1449 c-55 -65 -33 -89 170 -192 837 -424 1821 -558 2733 -372
409 83 825 231 1170 415 100 53 111 62 111 97 0 28 -46 83 -70 83 -10 0 -103
-42 -207 -93 -447 -220 -865 -344 -1383 -409 -166 -21 -738 -17 -915 5 -522
68 -978 207 -1403 427 -74 39 -145 70 -157 70 -14 0 -34 -13 -49 -31z"/>
</g>
</svg>
