<svg width="31" height="31" viewBox="0 0 31 31" fill="none" xmlns="http://www.w3.org/2000/svg">
<path d="M24.5346 27.7113C24.272 27.4862 23.8843 27.5113 23.6467 27.7614C22.8214 28.6993 21.6209 29.2495 20.3703 29.2495H6.61464C4.20114 29.2495 2.23782 27.2862 2.23782 24.8727V6.11488C2.23782 3.70138 4.20114 1.73806 6.61464 1.73806H13.505C13.9177 1.73806 14.3303 1.77558 14.743 1.85061V8.61591C14.743 10.3416 16.1436 11.7422 17.8693 11.7422H24.6346C24.7097 12.1424 24.7472 12.555 24.7472 12.9802V13.618C24.7472 13.9681 25.0223 14.2433 25.3724 14.2433C25.7226 14.2433 25.9977 13.9681 25.9977 13.618V12.9802C25.9977 10.8043 25.1473 8.76598 23.6217 7.22784L19.2699 2.87603C17.7318 1.33789 15.6934 0.500046 13.5175 0.500046H6.61464C3.51335 0.487541 0.987305 3.01359 0.987305 6.11488V24.8727C0.987305 27.974 3.51335 30.5 6.61464 30.5H20.3703C21.9835 30.5 23.5217 29.7997 24.5971 28.5992C24.8222 28.3366 24.7972 27.9489 24.5471 27.7113H24.5346ZM22.7338 8.11571C23.4216 8.80349 23.9468 9.61633 24.2845 10.4917H17.8693C16.8314 10.4917 15.9935 9.65385 15.9935 8.61591V2.20075C16.8814 2.53839 17.6817 3.06361 18.3695 3.7514L22.7213 8.1032L22.7338 8.11571ZM30.9998 21.1336C30.9998 21.7589 30.7622 22.3841 30.2745 22.8593L27.0606 26.0106C26.9356 26.1232 26.7855 26.1857 26.6229 26.1857C26.4604 26.1857 26.2978 26.1232 26.1728 25.9981C25.9352 25.748 25.9352 25.3604 26.1728 25.1103L29.3866 21.9715C29.4616 21.8964 29.5116 21.8214 29.5617 21.7464H17.8693C17.5192 21.7464 17.2441 21.4713 17.2441 21.1211C17.2441 20.771 17.5192 20.4958 17.8693 20.4958H29.5742C29.5241 20.4083 29.4616 20.3333 29.3866 20.2582L26.1728 17.1194C25.9227 16.8818 25.9227 16.4817 26.1728 16.2316C26.4104 15.9815 26.8105 15.9815 27.0606 16.2316L30.2745 19.3704C30.7497 19.8456 30.9998 20.4833 30.9998 21.1086V21.1336Z" fill="#F5F5DC" style="fill:#F5F5DC;fill:color(display-p3 0.9608 0.9608 0.8627);fill-opacity:1;"/>
</svg>
