<svg width="170" height="159" viewBox="0 0 170 159" fill="none" xmlns="http://www.w3.org/2000/svg">
<g clip-path="url(#clip0_99_1334)">
<path d="M49.5833 0H28.3333C12.7075 0 0 11.8852 0 26.5V46.375C0 60.9897 12.7075 72.875 28.3333 72.875H49.5833C65.2092 72.875 77.9167 60.9897 77.9167 46.375V26.5C77.9167 11.8852 65.2092 0 49.5833 0ZM63.75 46.375C63.75 53.6824 57.3963 59.625 49.5833 59.625H28.3333C20.5204 59.625 14.1667 53.6824 14.1667 46.375V26.5C14.1667 19.1926 20.5204 13.25 28.3333 13.25H49.5833C57.3963 13.25 63.75 19.1926 63.75 26.5V46.375ZM49.5833 33.125V39.75C49.5833 43.407 46.41 46.375 42.5 46.375H35.4167C31.5067 46.375 28.3333 43.407 28.3333 39.75V33.125C28.3333 29.468 31.5067 26.5 35.4167 26.5H42.5C46.41 26.5 49.5833 29.468 49.5833 33.125ZM120.417 72.875H141.667C157.293 72.875 170 60.9897 170 46.375V26.5C170 11.8852 157.293 0 141.667 0H120.417C104.791 0 92.0833 11.8852 92.0833 26.5V46.375C92.0833 60.9897 104.791 72.875 120.417 72.875ZM106.25 26.5C106.25 19.1926 112.604 13.25 120.417 13.25H141.667C149.48 13.25 155.833 19.1926 155.833 26.5V46.375C155.833 53.6824 149.48 59.625 141.667 59.625H120.417C112.604 59.625 106.25 53.6824 106.25 46.375V26.5ZM120.417 39.75V33.125C120.417 29.468 123.59 26.5 127.5 26.5H134.583C138.493 26.5 141.667 29.468 141.667 33.125V39.75C141.667 43.407 138.493 46.375 134.583 46.375H127.5C123.59 46.375 120.417 43.407 120.417 39.75ZM49.5833 86.125H28.3333C12.7075 86.125 0 98.0102 0 112.625V132.5C0 147.115 12.7075 159 28.3333 159H49.5833C65.2092 159 77.9167 147.115 77.9167 132.5V112.625C77.9167 98.0102 65.2092 86.125 49.5833 86.125ZM63.75 132.5C63.75 139.807 57.3963 145.75 49.5833 145.75H28.3333C20.5204 145.75 14.1667 139.807 14.1667 132.5V112.625C14.1667 105.318 20.5204 99.375 28.3333 99.375H49.5833C57.3963 99.375 63.75 105.318 63.75 112.625V132.5ZM49.5833 119.25V125.875C49.5833 129.532 46.41 132.5 42.5 132.5H35.4167C31.5067 132.5 28.3333 129.532 28.3333 125.875V119.25C28.3333 115.593 31.5067 112.625 35.4167 112.625H42.5C46.41 112.625 49.5833 115.593 49.5833 119.25ZM120.417 96.0625V102.688C120.417 108.173 115.657 112.625 109.792 112.625H102.708C96.8433 112.625 92.0833 108.173 92.0833 102.688V96.0625C92.0833 90.577 96.8433 86.125 102.708 86.125H109.792C115.657 86.125 120.417 90.577 120.417 96.0625ZM141.667 122.562C141.667 128.048 136.907 132.5 131.042 132.5C125.177 132.5 120.417 128.048 120.417 122.562C120.417 117.077 125.177 112.625 131.042 112.625C136.907 112.625 141.667 117.077 141.667 122.562ZM120.417 142.438V149.062C120.417 154.548 115.657 159 109.792 159H102.708C96.8433 159 92.0833 154.548 92.0833 149.062V142.438C92.0833 136.952 96.8433 132.5 102.708 132.5H109.792C115.657 132.5 120.417 136.952 120.417 142.438ZM170 96.0625V102.688C170 108.173 165.24 112.625 159.375 112.625H152.292C146.427 112.625 141.667 108.173 141.667 102.688V96.0625C141.667 90.577 146.427 86.125 152.292 86.125H159.375C165.24 86.125 170 90.577 170 96.0625Z" fill="#F5F5DC" fill-opacity="0.7" style="fill:#F5F5DC;fill:color(display-p3 0.9608 0.9608 0.8627);fill-opacity:0.7;"/>
</g>
<defs>
<clipPath id="clip0_99_1334">
<rect width="170" height="159" fill="white" style="fill:white;fill-opacity:1;"/>
</clipPath>
</defs>
</svg>
